<?xml version="1.0" encoding="utf-8"?>
<!-- Svg Vector Icons : http://www.onlinewebfonts.com/icon -->
<!DOCTYPE svg PUBLIC "-//W3C//DTD SVG 1.1//EN" "http://www.w3.org/Graphics/SVG/1.1/DTD/svg11.dtd">
<svg version="1.1" xmlns="http://www.w3.org/2000/svg" xmlns:xlink="http://www.w3.org/1999/xlink" x="0px" y="0px" viewBox="0 0 256 256" enable-background="new 0 0 256 256" xml:space="preserve">
<metadata> Svg Vector Icons : http://www.onlinewebfonts.com/icon </metadata>
<g><g><g><path fill="#000000" d="M127.5,11.9c-8.9,33.7-12.3,40.6-38,79.1c-6.2,9.2-13.1,19.8-15.3,23.5c-10.7,17.8-16.6,32.7-19.1,47.7c-1.1,6.5-1.1,18.2,0,24.5c4.8,27.5,26.2,49.8,54.8,57c26.2,6.6,53-0.7,71.9-19.7c13.7-13.7,19.8-28.5,19.8-47.8c0-15.9-3.8-30-13.3-48.6c-5.2-10.2-8.7-16.2-21-35.2c-11.9-18.5-15-23.7-20.1-34.3c-7-14.3-14.6-33.1-17.6-43.4c-0.7-2.4-1.3-4.4-1.4-4.5C128.2,9.9,127.8,10.8,127.5,11.9z M138.8,63c5.7,11.6,7.3,14.3,19.7,33.6c18.6,28.9,25.6,42.1,29.9,56.2c4.3,14.4,4.7,29.3,1,41.3c-6.5,20.5-26.5,37.2-49.5,41.1c-5.6,1-16.6,0.9-22.5,0c-13.1-2.2-24.9-8.1-34.5-17.3c-12.4-11.8-18.8-26.4-18.8-43c0-13.4,3.3-25.7,10.8-41.1c5-10.1,9.2-17,23.6-38.5c17.1-25.5,24.4-38,29-49.6l1.6-3.9l2.6,6.1C133.2,51.2,136.3,58,138.8,63z"/><path fill="#000000" d="M140.8,84.7c1,3,4.9,16.5,6.7,23.3c6.2,23.3,8.7,39,9.9,62.3c0.3,5.8,0.8,11.8,1.2,13.3c1.9,7.5,5.6,10.4,11.5,9.1c5.2-1.2,8.8-5.4,10-11.6c2.9-16.4-7.3-46.7-25.8-76.2C147.6,94.3,140.3,83.3,140.8,84.7z"/></g></g></g>
</svg>